<svg width="87" height="37" viewBox="0 0 87 37" fill="none" xmlns="http://www.w3.org/2000/svg">
<path d="M7.57955 34.1364C6.96591 34.1364 6.4375 33.9915 5.99432 33.7017C5.55114 33.4119 5.21023 33.0128 4.97159 32.5043C4.73295 31.9957 4.61364 31.4148 4.61364 30.7614C4.61364 30.0966 4.7358 29.5099 4.98011 29.0014C5.22727 28.4901 5.57102 28.0909 6.01136 27.804C6.45455 27.5142 6.97159 27.3693 7.5625 27.3693C8.02273 27.3693 8.4375 27.4545 8.80682 27.625C9.17614 27.7955 9.47869 28.0341 9.71449 28.3409C9.95028 28.6477 10.0966 29.0057 10.1534 29.4148H9.14773C9.07102 29.1165 8.90057 28.8523 8.63636 28.6222C8.375 28.3892 8.02273 28.2727 7.57955 28.2727C7.1875 28.2727 6.84375 28.375 6.5483 28.5795C6.25568 28.7812 6.02699 29.0668 5.86222 29.4361C5.70028 29.8026 5.61932 30.233 5.61932 30.7273C5.61932 31.233 5.69886 31.6733 5.85795 32.0483C6.01989 32.4233 6.24716 32.7145 6.53977 32.9219C6.83523 33.1293 7.18182 33.233 7.57955 33.233C7.84091 33.233 8.07812 33.1875 8.29119 33.0966C8.50426 33.0057 8.68466 32.875 8.83239 32.7045C8.98011 32.5341 9.08523 32.3295 9.14773 32.0909H10.1534C10.0966 32.4773 9.95597 32.8253 9.73153 33.1349C9.50994 33.4418 9.21591 33.6861 8.84943 33.8679C8.4858 34.0469 8.0625 34.1364 7.57955 34.1364ZM16.0697 34.1534C15.6549 34.1534 15.2785 34.0753 14.9405 33.919C14.6024 33.7599 14.3339 33.5312 14.1351 33.233C13.9362 32.9318 13.8368 32.5682 13.8368 32.142C13.8368 31.767 13.9106 31.4631 14.0584 31.2301C14.2061 30.9943 14.4035 30.8097 14.6507 30.6761C14.8978 30.5426 15.1706 30.4432 15.4689 30.3778C15.77 30.3097 16.0726 30.2557 16.3765 30.2159C16.7743 30.1648 17.0967 30.1264 17.3439 30.1009C17.5939 30.0724 17.7757 30.0256 17.8893 29.9602C18.0058 29.8949 18.064 29.7812 18.064 29.6193V29.5852C18.064 29.1648 17.949 28.8381 17.7189 28.6051C17.4916 28.3722 17.1464 28.2557 16.6834 28.2557C16.2032 28.2557 15.8268 28.3608 15.5541 28.571C15.2814 28.7812 15.0896 29.0057 14.9788 29.2443L14.0243 28.9034C14.1947 28.5057 14.422 28.196 14.7061 27.9744C14.993 27.75 15.3055 27.5937 15.6436 27.5057C15.9845 27.4148 16.3197 27.3693 16.6493 27.3693C16.8595 27.3693 17.101 27.3949 17.3737 27.446C17.6493 27.4943 17.9149 27.5952 18.1706 27.7486C18.4291 27.902 18.6436 28.1335 18.814 28.4432C18.9845 28.7528 19.0697 29.1676 19.0697 29.6875V34H18.064V33.1136H18.0129C17.9447 33.2557 17.8311 33.4077 17.672 33.5696C17.5129 33.7315 17.3013 33.8693 17.037 33.983C16.7728 34.0966 16.4504 34.1534 16.0697 34.1534ZM16.2231 33.25C16.6209 33.25 16.9561 33.1719 17.2288 33.0156C17.5044 32.8594 17.7118 32.6577 17.851 32.4105C17.993 32.1634 18.064 31.9034 18.064 31.6307V30.7102C18.0214 30.7614 17.9277 30.8082 17.7828 30.8509C17.6407 30.8906 17.476 30.9261 17.2885 30.9574C17.1038 30.9858 16.9234 31.0114 16.7473 31.0341C16.574 31.054 16.4334 31.071 16.3254 31.0852C16.064 31.1193 15.8197 31.1747 15.5924 31.2514C15.368 31.3253 15.1862 31.4375 15.047 31.5881C14.9106 31.7358 14.8424 31.9375 14.8424 32.1932C14.8424 32.5426 14.9717 32.8068 15.2302 32.9858C15.4916 33.1619 15.8226 33.25 16.2231 33.25ZM23.4253 34V27.4545H24.3969V28.4773H24.4821C24.6185 28.1278 24.8387 27.8565 25.1426 27.6634C25.4466 27.4673 25.8117 27.3693 26.2378 27.3693C26.6696 27.3693 27.029 27.4673 27.3159 27.6634C27.6057 27.8565 27.8315 28.1278 27.9935 28.4773H28.0617C28.2293 28.1392 28.4807 27.8707 28.8159 27.6719C29.1512 27.4702 29.5531 27.3693 30.0219 27.3693C30.6071 27.3693 31.0858 27.5526 31.458 27.919C31.8301 28.2827 32.0162 28.8494 32.0162 29.6193V34H31.0105V29.6193C31.0105 29.1364 30.8784 28.7912 30.6142 28.5838C30.35 28.3764 30.0389 28.2727 29.681 28.2727C29.2208 28.2727 28.8642 28.4119 28.6114 28.6903C28.3585 28.9659 28.2321 29.3153 28.2321 29.7386V34H27.2094V29.517C27.2094 29.1449 27.0887 28.8452 26.8472 28.6179C26.6057 28.3878 26.2946 28.2727 25.9139 28.2727C25.6526 28.2727 25.4083 28.3423 25.181 28.4815C24.9565 28.6207 24.7747 28.8139 24.6355 29.0611C24.4992 29.3054 24.431 29.5881 24.431 29.9091V34H23.4253ZM36.375 36.4545V27.4545H37.3466V28.4943H37.4659C37.5398 28.3807 37.642 28.2358 37.7727 28.0597C37.9062 27.8807 38.0966 27.7216 38.3437 27.5824C38.5937 27.4403 38.9318 27.3693 39.3579 27.3693C39.9091 27.3693 40.3949 27.5071 40.8153 27.7827C41.2358 28.0582 41.5639 28.4489 41.7997 28.9545C42.0355 29.4602 42.1534 30.0568 42.1534 30.7443C42.1534 31.4375 42.0355 32.0384 41.7997 32.5469C41.5639 33.0526 41.2372 33.4446 40.8196 33.723C40.402 33.9986 39.9204 34.1364 39.375 34.1364C38.9545 34.1364 38.6179 34.0668 38.365 33.9276C38.1122 33.7855 37.9176 33.625 37.7812 33.446C37.6449 33.2642 37.5398 33.1136 37.4659 32.9943H37.3807V36.4545H36.375ZM37.3636 30.7273C37.3636 31.2216 37.4361 31.6577 37.581 32.0355C37.7258 32.4105 37.9375 32.7045 38.2159 32.9176C38.4943 33.1278 38.8352 33.233 39.2386 33.233C39.6591 33.233 40.0099 33.1222 40.2912 32.9006C40.5753 32.6761 40.7883 32.375 40.9304 31.9972C41.0753 31.6165 41.1477 31.1932 41.1477 30.7273C41.1477 30.267 41.0767 29.8523 40.9346 29.483C40.7954 29.1108 40.5838 28.8168 40.2997 28.6009C40.0185 28.3821 39.6648 28.2727 39.2386 28.2727C38.8295 28.2727 38.4858 28.3764 38.2074 28.5838C37.929 28.7884 37.7187 29.0753 37.5767 29.4446C37.4346 29.8111 37.3636 30.2386 37.3636 30.7273ZM46.2075 34V27.4545H47.2132V34H46.2075ZM46.7189 26.3636C46.5228 26.3636 46.3538 26.2969 46.2117 26.1634C46.0725 26.0298 46.0029 25.8693 46.0029 25.6818C46.0029 25.4943 46.0725 25.3338 46.2117 25.2003C46.3538 25.0668 46.5228 25 46.7189 25C46.9149 25 47.0825 25.0668 47.2217 25.2003C47.3637 25.3338 47.4348 25.4943 47.4348 25.6818C47.4348 25.8693 47.3637 26.0298 47.2217 26.1634C47.0825 26.2969 46.9149 26.3636 46.7189 26.3636ZM52.5808 30.0625V34H51.5751V27.4545H52.5467V28.4773H52.632C52.7854 28.1449 53.0183 27.8778 53.3308 27.6761C53.6433 27.4716 54.0467 27.3693 54.541 27.3693C54.9842 27.3693 55.372 27.4602 55.7044 27.642C56.0368 27.821 56.2953 28.0938 56.48 28.4602C56.6646 28.8239 56.757 29.2841 56.757 29.8409V34H55.7513V29.9091C55.7513 29.3949 55.6178 28.9943 55.3507 28.7074C55.0837 28.4176 54.7172 28.2727 54.2513 28.2727C53.9303 28.2727 53.6433 28.3423 53.3905 28.4815C53.1405 28.6207 52.943 28.8239 52.7982 29.0909C52.6533 29.358 52.5808 29.6818 52.5808 30.0625ZM63.0408 34.1534C62.626 34.1534 62.2496 34.0753 61.9115 33.919C61.5735 33.7599 61.305 33.5312 61.1061 33.233C60.9073 32.9318 60.8079 32.5682 60.8079 32.142C60.8079 31.767 60.8817 31.4631 61.0294 31.2301C61.1772 30.9943 61.3746 30.8097 61.6218 30.6761C61.8689 30.5426 62.1417 30.4432 62.44 30.3778C62.7411 30.3097 63.0436 30.2557 63.3476 30.2159C63.7454 30.1648 64.0678 30.1264 64.315 30.1009C64.565 30.0724 64.7468 30.0256 64.8604 29.9602C64.9769 29.8949 65.0351 29.7812 65.0351 29.6193V29.5852C65.0351 29.1648 64.9201 28.8381 64.69 28.6051C64.4627 28.3722 64.1175 28.2557 63.6544 28.2557C63.1743 28.2557 62.7979 28.3608 62.5252 28.571C62.2525 28.7812 62.0607 29.0057 61.9499 29.2443L60.9954 28.9034C61.1658 28.5057 61.3931 28.196 61.6772 27.9744C61.9641 27.75 62.2766 27.5937 62.6147 27.5057C62.9556 27.4148 63.2908 27.3693 63.6204 27.3693C63.8306 27.3693 64.0721 27.3949 64.3448 27.446C64.6204 27.4943 64.886 27.5952 65.1417 27.7486C65.4002 27.902 65.6147 28.1335 65.7851 28.4432C65.9556 28.7528 66.0408 29.1676 66.0408 29.6875V34H65.0351V33.1136H64.984C64.9158 33.2557 64.8022 33.4077 64.6431 33.5696C64.484 33.7315 64.2723 33.8693 64.0081 33.983C63.7439 34.0966 63.4215 34.1534 63.0408 34.1534ZM63.1942 33.25C63.5919 33.25 63.9272 33.1719 64.1999 33.0156C64.4755 32.8594 64.6829 32.6577 64.8221 32.4105C64.9641 32.1634 65.0351 31.9034 65.0351 31.6307V30.7102C64.9925 30.7614 64.8988 30.8082 64.7539 30.8509C64.6118 30.8906 64.4471 30.9261 64.2596 30.9574C64.0749 30.9858 63.8945 31.0114 63.7184 31.0341C63.5451 31.054 63.4044 31.071 63.2965 31.0852C63.0351 31.1193 62.7908 31.1747 62.5635 31.2514C62.3391 31.3253 62.1573 31.4375 62.0181 31.5881C61.8817 31.7358 61.8135 31.9375 61.8135 32.1932C61.8135 32.5426 61.9428 32.8068 62.2013 32.9858C62.4627 33.1619 62.7936 33.25 63.1942 33.25ZM75.0328 28.9205L74.1293 29.1761C74.0725 29.0256 73.9887 28.8793 73.8779 28.7372C73.77 28.5923 73.6222 28.473 73.4347 28.3793C73.2472 28.2855 73.0072 28.2386 72.7146 28.2386C72.314 28.2386 71.9802 28.331 71.7132 28.5156C71.4489 28.6974 71.3168 28.929 71.3168 29.2102C71.3168 29.4602 71.4078 29.6577 71.5896 29.8026C71.7714 29.9474 72.0555 30.0682 72.4418 30.1648L73.4134 30.4034C73.9987 30.5455 74.4347 30.7628 74.7217 31.0554C75.0086 31.3452 75.1521 31.7187 75.1521 32.1761C75.1521 32.5511 75.0441 32.8864 74.8282 33.1818C74.6151 33.4773 74.3168 33.7102 73.9333 33.8807C73.5498 34.0511 73.1038 34.1364 72.5953 34.1364C71.9276 34.1364 71.3751 33.9915 70.9376 33.7017C70.5001 33.4119 70.2231 32.9886 70.1066 32.4318L71.0612 32.1932C71.1521 32.5455 71.3239 32.8097 71.5768 32.9858C71.8325 33.1619 72.1663 33.25 72.5782 33.25C73.047 33.25 73.4191 33.1506 73.6947 32.9517C73.9731 32.75 74.1123 32.5085 74.1123 32.2273C74.1123 32 74.0328 31.8097 73.8737 31.6562C73.7146 31.5 73.4703 31.3835 73.1407 31.3068L72.0498 31.0511C71.4504 30.9091 71.01 30.6889 70.7288 30.3906C70.4504 30.0895 70.3112 29.7131 70.3112 29.2614C70.3112 28.892 70.4149 28.5653 70.6222 28.2812C70.8325 27.9972 71.118 27.7741 71.4788 27.6122C71.8424 27.4503 72.2543 27.3693 72.7146 27.3693C73.3623 27.3693 73.8708 27.5114 74.2401 27.7955C74.6123 28.0795 74.8765 28.4545 75.0328 28.9205Z" fill="#006093"/>
<path d="M6.26 8.04C7.72667 8.04 9.01333 8.32667 10.12 8.9C11.24 9.47333 12.1 10.2933 12.7 11.36C13.3133 12.4133 13.62 13.64 13.62 15.04C13.62 16.44 13.3133 17.6667 12.7 18.72C12.1 19.76 11.24 20.5667 10.12 21.14C9.01333 21.7133 7.72667 22 6.26 22H1.38V8.04H6.26ZM6.16 19.62C7.62667 19.62 8.76 19.22 9.56 18.42C10.36 17.62 10.76 16.4933 10.76 15.04C10.76 13.5867 10.36 12.4533 9.56 11.64C8.76 10.8133 7.62667 10.4 6.16 10.4H4.18V19.62H6.16ZM29.8959 12.36C29.8959 13.1067 29.7159 13.8067 29.3559 14.46C29.0093 15.1133 28.4559 15.64 27.6959 16.04C26.9493 16.44 26.0026 16.64 24.8559 16.64H22.5159V22H19.7159V8.04H24.8559C25.9359 8.04 26.8559 8.22667 27.6159 8.6C28.3759 8.97333 28.9426 9.48667 29.3159 10.14C29.7026 10.7933 29.8959 11.5333 29.8959 12.36ZM24.7359 14.38C25.5093 14.38 26.0826 14.2067 26.4559 13.86C26.8293 13.5 27.0159 13 27.0159 12.36C27.0159 11 26.2559 10.32 24.7359 10.32H22.5159V14.38H24.7359ZM48.4239 8.04L43.3039 22H39.9039L34.7839 8.04H37.7839L41.6239 19.14L45.4439 8.04H48.4239ZM62.6627 19.34H57.1027L56.1827 22H53.2427L58.2627 8.02H61.5227L66.5427 22H63.5827L62.6627 19.34ZM61.9027 17.1L59.8827 11.26L57.8627 17.1H61.9027ZM81.9191 8.04V10.3H78.1991V22H75.3991V10.3H71.6791V8.04H81.9191Z" fill="#FE9503"/>
</svg>
